# xmcd CD database file
#
# Track frame offsets:
#	150
#	18046
#	40052
#	59958
#	75784
#	91310
#	106004
#	128430
#
# Disc length: 1933 seconds
#
# Revision: 1
# Processed by: cddbd v1.5.2PL0 Copyright (c) Steve Scherf et al.
# Submitted via: cddb-tool 0.4.7
#
DISCID=4e078908,4e078b08
DTITLE=Climax Blues Band - Gold Plated
DYEAR=1976
DGENRE=Blues
TTITLE0=Together And Free
TTITLE1=Mighty Fire
TTITLE2=Chasing Change
TTITLE3=Berlin Blues
TTITLE4=Couldn't Get It Right
TTITLE5=Rollin' Home
TTITLE6=Sav'ry Gravy
TTITLE7=Extra
EXTD=
EXTT0=
EXTT1=
EXTT2=
EXTT3=
EXTT4=
EXTT5=
EXTT6=
EXTT7=
PLAYORDER=
